<?xml version="1.0" encoding="utf-8"?>
<!-- Generator: Adobe Illustrator 22.0.0, SVG Export Plug-In . SVG Version: 6.00 Build 0)  -->
<svg version="1.1" id="Capa_1" xmlns="http://www.w3.org/2000/svg" xmlns:xlink="http://www.w3.org/1999/xlink" x="0px" y="0px"
	 viewBox="0 0 167.1 52.1" style="enable-background:new 0 0 167.1 52.1;" xml:space="preserve">
<style type="text/css">
	.st0{fill:#808080;}
	.st1{fill:#231F20;}
	.st2{fill:#FFFFFF;}
	.st3{fill:#F26D21;}
</style>
<g>
	<g>
		<path d="M64.5,31.7L60.7,18h3.7l2,8.1l2-8.1h3.8l-4,13.7H64.5L64.5,31.7z"/>
		<path d="M78.8,32c-1.8,0-3.3-0.7-4.4-2c-1.1-1.3-1.6-3-1.6-5.1s0.5-3.8,1.6-5.1c1.1-1.3,2.5-2,4.4-2c1.8,0,3.3,0.7,4.4,2
			c1.1,1.3,1.6,3,1.6,5.1s-0.5,3.8-1.6,5.1C82.1,31.3,80.7,32,78.8,32z M78.8,20.9c-0.5,0-0.9,0.1-1.2,0.4c-0.3,0.3-0.5,0.6-0.7,1
			c-0.2,0.4-0.3,0.8-0.3,1.3c0,0.5-0.1,0.9-0.1,1.3c0,0.4,0,0.8,0.1,1.3c0,0.5,0.1,0.9,0.3,1.3c0.2,0.4,0.4,0.7,0.7,1
			c0.3,0.3,0.7,0.4,1.2,0.4c0.5,0,0.9-0.1,1.2-0.4c0.3-0.3,0.5-0.6,0.7-1c0.2-0.4,0.3-0.8,0.3-1.3c0-0.5,0.1-0.9,0.1-1.3
			c0-1.3-0.2-2.3-0.6-3C80.2,21.2,79.6,20.9,78.8,20.9z"/>
		<path d="M91.5,22.2c-0.5,0.4-0.9,0.8-1,1.2v8.3h-3.7V18h3.5v1.6c0.5-0.7,1-1.1,1.6-1.4c0.6-0.3,1.3-0.4,2.1-0.4v3.9l-0.8,0
			C92.6,21.6,92.1,21.8,91.5,22.2z"/>
		<path d="M100.8,26.1l-1.2,1.4v4.2h-3.7V12.9h3.7v9.8l3.6-4.7h4.3l-4.1,5.2l4.3,8.5h-4L100.8,26.1z"/>
		<path class="st0" d="M109.1,18.1h1.6v2.3h0.1c0.6-1.6,2.4-2.7,4.3-2.7c3.8,0,4.9,2,4.9,5.2v8.6h-1.6v-8.3c0-2.3-0.8-4-3.4-4
			c-2.6,0-4.1,2-4.2,4.6v7.8h-1.6V18.1L109.1,18.1z"/>
		<path class="st0" d="M124.4,25.2c0,2.4,1.3,5.3,4.4,5.3c2.4,0,3.7-1.4,4.2-3.4h1.6c-0.7,3-2.5,4.8-5.8,4.8c-4.2,0-6-3.3-6-7.1
			c0-3.5,1.8-7.1,6-7.1c4.3,0,6,3.8,5.9,7.5H124.4L124.4,25.2z M133.1,23.8c-0.1-2.5-1.6-4.8-4.2-4.8c-2.7,0-4.1,2.3-4.4,4.8H133.1z
			"/>
		<path class="st0" d="M136,18.1h1.7l3.4,11.5h0.1l3.3-11.5h1.8l3.3,11.5h0.1l3.4-11.5h1.7l-4.3,13.4h-1.8l-3.3-11.2h0l-3.3,11.2
			h-1.8L136,18.1z"/>
		<path class="st0" d="M165,22c-0.1-2-1.6-2.9-3.5-2.9c-1.4,0-3.2,0.6-3.2,2.3c0,1.5,1.7,2,2.8,2.3l2.2,0.5c1.9,0.3,3.8,1.4,3.8,3.7
			c0,2.9-2.9,4-5.4,4c-3.1,0-5.2-1.4-5.5-4.7h1.6c0.1,2.2,1.8,3.3,3.9,3.3c1.5,0,3.7-0.7,3.7-2.5c0-1.6-1.5-2.1-2.9-2.4l-2.1-0.5
			c-2.1-0.6-3.7-1.3-3.7-3.6c0-2.7,2.7-3.8,5-3.8c2.7,0,4.8,1.4,4.9,4.3H165L165,22z"/>
	</g>
	<path class="st1" d="M55.5,27.2c1.2-0.7,1.8-1.8,1.7-3l0,0c0-1.1-0.7-2.3-1.8-3.3l0,0l-11.3-9.3l0,0c-0.9-0.8-2.2-1.2-3.4-1.3l0,0
		c0.1-0.8-0.2-1.7-1.1-2.4l0,0L31.3,1l0,0c-1.4-1.1-4-1.4-6-0.5l0,0L14,5.4l0,0c-2.2,0.9-3.1,2.8-2,4.2l0,0l5.5,6.6l0,0
		c1.4,1.7,0.5,4.1-2.1,5.4l0,0L3.6,27.6l0,0c-1.4,0.7-2.5,1.8-3.1,3l0,0c-0.6,1.2-0.7,2.6-0.1,3.7l0,0L8,49l0,0
		c1.6,3.2,5.9,4.1,9.3,2l0,0l17.1-10.6l0,0c1.4-0.9,2.3-2.2,2.5-3.6l0,0c1.6,0.3,3.3,0,4.7-0.8l0,0L55.5,27.2z"/>
	<path class="st2" d="M26.1,16.3c-1.8,0.9-4.3,0.6-5.4-0.7l0,0l-5.5-6.3l0,0c-0.9-1.1-0.3-2.5,1.4-3.2l0,0l8.7-3.8l0,0
		C26.9,1.6,29,1.8,30,2.7l0,0l6.3,5.4l0,0c1.3,1.1,1,2.6-0.7,3.5l0,0L26.1,16.3z"/>
	<path class="st0" d="M25.9,13.4c-1.1,0.5-2.6,0.4-3.3-0.4l0,0l-3.5-3.8l0,0c-0.6-0.7-0.3-1.6,0.8-2.1l0,0l5.6-2.5l0,0
		c1-0.4,2.3-0.3,3,0.3l0,0l3.8,3.5l0,0c0.7,0.7,0.5,1.6-0.5,2.2l0,0L25.9,13.4z"/>
	<path class="st2" d="M17.4,46.3c-2.5,1.5-5.6,0.9-6.9-1.4l0,0l-6-10.8l0,0c-1-1.8,0.1-4.1,2.3-5.2l0,0l11.4-5.8l0,0
		c2-1,4.5-0.7,5.8,0.8l0,0l7.4,9l0,0c1.5,1.8,1.1,4.4-1.2,5.8l0,0L17.4,46.3z"/>
	<path class="st0" d="M17.6,41.2c-1.5,0.9-3.4,0.5-4.2-0.8l0,0l-4-6.6l0,0c-0.7-1.1-0.1-2.6,1.3-3.3l0,0l7.3-3.8l0,0
		c1.3-0.7,3-0.4,3.7,0.6l0,0l4.5,5.8l0,0c0.9,1.1,0.5,2.7-0.9,3.6l0,0L17.6,41.2z"/>
	<path class="st2" d="M40.9,32.2c-2.1,1.2-5,0.8-6.6-1l0,0l-7.6-8.7l0,0c-1.3-1.4-0.7-3.4,1.1-4.3l0,0l9.6-4.9l0,0
		c1.7-0.9,4.2-0.6,5.6,0.6l0,0l8.5,7.3l0,0c1.7,1.5,1.7,3.6-0.1,4.7l0,0L40.9,32.2z"/>
	<path class="st3" d="M40.1,28.1c-1.2,0.7-3,0.4-4-0.6l0,0l-4.9-5.3l0,0c-0.8-0.9-0.6-2.1,0.6-2.8l0,0l6.1-3.2l0,0
		c1.1-0.6,2.7-0.4,3.6,0.4l0,0l5.2,4.7l0,0c1,0.9,1,2.2-0.2,2.9l0,0L40.1,28.1z"/>
</g>
<g>
	<path class="st0" d="M110.8,39.2l-1.5-3.9h1.1l1,2.8l1-2.8h1.1l-1.5,3.9H110.8z"/>
	<path class="st0" d="M113.5,37.2c0-1.2,0.9-2,2.1-2c1.2,0,2.1,0.8,2.1,2c0,1.2-0.9,2-2.1,2C114.4,39.2,113.5,38.4,113.5,37.2z
		 M116.6,37.2c0-0.6-0.4-1.1-1.1-1.1c-0.7,0-1.1,0.5-1.1,1.1c0,0.6,0.4,1.1,1.1,1.1C116.2,38.4,116.6,37.9,116.6,37.2z"/>
	<path class="st0" d="M120.4,39.2l-0.7-1.3h-0.5v1.3h-1v-3.9h2c0.9,0,1.4,0.6,1.4,1.3c0,0.7-0.4,1-0.8,1.2l0.8,1.4H120.4z
		 M120.5,36.6c0-0.3-0.2-0.4-0.5-0.4h-0.8V37h0.8C120.3,37,120.5,36.8,120.5,36.6z"/>
	<path class="st0" d="M124.4,39.2l-1-1.5l-0.3,0.3v1.1h-1v-3.9h1v1.6l1.2-1.6h1.2l-1.5,1.8l1.6,2.1H124.4z"/>
	<path class="st0" d="M128.6,39.2l-1.7-2.3v2.3h-1v-3.9h1l1.6,2.2v-2.2h1v3.9H128.6z"/>
	<path class="st0" d="M130.3,39.2v-3.9h2.9v0.9h-1.9v0.6h1.8v0.9h-1.8v0.7h1.9v0.9H130.3z"/>
	<path class="st0" d="M136.7,39.2l-0.6-2.5l-0.6,2.5h-1.1l-1.1-3.9h1.1l0.6,2.6l0.7-2.6h0.8l0.7,2.6l0.6-2.6h1.1l-1.1,3.9H136.7z"/>
	<path class="st0" d="M138.9,38.6l0.5-0.8c0.3,0.3,0.7,0.5,1.3,0.5c0.3,0,0.6-0.1,0.6-0.3c0-0.5-2.2-0.1-2.2-1.6
		c0-0.7,0.6-1.2,1.6-1.2c0.6,0,1.2,0.2,1.6,0.5l-0.6,0.7c-0.3-0.3-0.8-0.4-1.1-0.4c-0.3,0-0.4,0.1-0.4,0.3c0,0.5,2.2,0.1,2.2,1.6
		c0,0.8-0.6,1.3-1.6,1.3C139.9,39.2,139.3,39,138.9,38.6z"/>
	<path class="st0" d="M142.6,38.7c0-0.3,0.3-0.6,0.6-0.6c0.3,0,0.6,0.3,0.6,0.6c0,0.3-0.3,0.6-0.6,0.6
		C142.9,39.2,142.6,39,142.6,38.7z"/>
	<path class="st0" d="M144.2,37.2c0-1.2,0.9-2,2.1-2c0.9,0,1.4,0.5,1.7,1.1l-0.9,0.4c-0.1-0.3-0.5-0.6-0.8-0.6
		c-0.6,0-1.1,0.5-1.1,1.1c0,0.6,0.5,1.1,1.1,1.1c0.4,0,0.7-0.3,0.8-0.6l0.9,0.4c-0.3,0.5-0.8,1.1-1.7,1.1
		C145.1,39.2,144.2,38.4,144.2,37.2z"/>
	<path class="st0" d="M148.2,37.2c0-1.2,0.9-2,2.1-2c1.2,0,2.1,0.8,2.1,2c0,1.2-0.9,2-2.1,2C149.1,39.2,148.2,38.4,148.2,37.2z
		 M151.4,37.2c0-0.6-0.4-1.1-1.1-1.1c-0.7,0-1.1,0.5-1.1,1.1c0,0.6,0.4,1.1,1.1,1.1C151,38.4,151.4,37.9,151.4,37.2z"/>
	<path class="st0" d="M156.3,39.2v-2.5l-1,2.5h-0.4l-1-2.5v2.5h-1v-3.9h1.4l0.8,2.1l0.8-2.1h1.4v3.9H156.3z"/>
	<path class="st0" d="M157.9,38.7c0-0.3,0.3-0.6,0.6-0.6c0.3,0,0.6,0.3,0.6,0.6c0,0.3-0.3,0.6-0.6,0.6
		C158.2,39.2,157.9,39,157.9,38.7z"/>
	<path class="st0" d="M162.3,39.2l-0.2-0.6h-1.5l-0.2,0.6h-1.1l1.5-3.9h1.3l1.5,3.9H162.3z M161.3,36.3l-0.5,1.5h1L161.3,36.3z"/>
	<path class="st0" d="M165.9,39.2l-0.7-1.3h-0.5v1.3h-1v-3.9h2c0.9,0,1.4,0.6,1.4,1.3c0,0.7-0.4,1-0.8,1.2l0.8,1.4H165.9z M166,36.6
		c0-0.3-0.2-0.4-0.5-0.4h-0.8V37h0.8C165.8,37,166,36.8,166,36.6z"/>
</g>
<g>
</g>
<g>
</g>
<g>
</g>
<g>
</g>
<g>
</g>
<g>
</g>
</svg>
