<?xml version="1.0" encoding="utf-8"?>
<!-- Generator: Adobe Illustrator 22.0.0, SVG Export Plug-In . SVG Version: 6.00 Build 0)  -->
<svg version="1.1" id="Capa_1" xmlns="http://www.w3.org/2000/svg" xmlns:xlink="http://www.w3.org/1999/xlink" x="0px" y="0px"
	 viewBox="0 0 659.3 371.2" style="enable-background:new 0 0 659.3 371.2;" xml:space="preserve">
<g>
	<a xlink:href="http://lapianola.com.ar/" >
		<g>
			<g>
				<g>
					<path d="M122.3,134.1L70,134l0.1-99.9l31,0l-0.1,68.9l21.3,0L122.3,134.1z"/>
					<path d="M137.6,134.1L201.3,24l63.4,110.3L137.6,134.1z M210.8,103.2l-9.6-16.8l-9.8,16.8L210.8,103.2z"/>
				</g>
				<g>
					<path d="M150.5,219.4c-8.3,8.3-18.6,12.5-30.4,12.5l-18.1,0l0,14.3l-31.1,0l0.1-100l49.2,0.1c11.8,0,22,4.3,30.4,12.6
						c8.3,8.3,12.5,18.6,12.5,30.4C163.1,201,158.8,211,150.5,219.4z M120.2,177.3l-18.1,0l0,23.7l18.1,0c6.6,0,11.8-5.4,11.8-11.8
						C132,182.5,126.7,177.3,120.2,177.3z"/>
					<path d="M198.3,246.3l-31,0l0.1-100l31,0L198.3,246.3z"/>
					<path d="M202.7,246.3l63.7-110.1l63.4,110.3L202.7,246.3z M275.9,215.3l-9.6-16.8l-9.8,16.8L275.9,215.3z"/>
				</g>
				<g>
					<path d="M100.6,371.2L31.2,316l-0.1,42.9l-31.1,0L0.2,252l69.4,55l0.1-48l31.1,0L100.6,371.2z"/>
					<path d="M194.8,346.9c-10.4,10.4-22.9,15.6-37.7,15.6c-14.7,0-27.3-5.3-37.8-15.7c-10.4-10.5-15.6-23.1-15.6-37.8
						c0-14.7,5.3-27.3,15.7-37.7c10.5-10.5,23.1-15.7,37.8-15.7c14.7,0,27.3,5.3,37.6,15.8c10.5,10.4,15.7,22.9,15.7,37.7
						C210.6,323.9,205.3,336.4,194.8,346.9z M173,293.3c-4.4-4.4-9.6-6.6-15.8-6.6c-6.3,0-11.5,2.2-15.9,6.5
						c-4.4,4.4-6.6,9.6-6.6,15.8c0,6.3,2.2,11.5,6.5,15.9c4.4,4.4,9.6,6.6,15.9,6.6c6.1,0,11.4-2.2,15.8-6.5
						c4.5-4.4,6.7-9.6,6.7-15.9C179.7,302.9,177.5,297.7,173,293.3z"/>
					<path d="M264.3,359.3l-52.3-0.1l0.1-99.9l31,0l-0.1,68.9l21.3,0L264.3,359.3z"/>
					<path d="M267.2,359.3l63.7-110.2l63.4,110.3L267.2,359.3z M340.4,328.3l-9.6-16.8l-9.8,16.8L340.4,328.3z"/>
				</g>
			</g>
		</g>
	</a>
	<g>
		<g>
			<path d="M366.8,161.6L366.8,161.6c0.3,0,0.7,0.2,1.2,0.6c0.4,0.3,0.8,0.5,1.2,0.8c0.2,0.1,0.5,0.3,0.8,0.5
				c0.4,0.3,0.6,0.7,0.6,1.1c0,0.2,0,0.4-0.1,0.5c-0.1,0.1-0.2,0.2-0.4,0.4c-0.7,0.7-1.2,1.1-1.5,1.1c0,0-0.1,0-0.1,0
				c-0.1,0-0.1,0-0.2,0c-1.7-1.1-2.9-1.8-3.6-2.1c-1.4-0.7-2.7-1-4-1c-2.9,0-5.5,0.9-7.6,2.7c-0.3,0.2-0.7,0.6-1.2,1.2
				c-0.1,0.2-0.2,0.5-0.4,0.8c-0.8,2-1.2,3.7-1.2,5.3c0,1.7,0.4,3.2,1.3,4.4c0.4,0.2,0.9,0.6,1.4,1.2c0.6,0.6,1,1,1.4,1.2
				c1.6,0.8,3.4,1.2,5.4,1.2c3.3,0,6.2-0.9,8.7-2.8c0.1,0,0.2,0,0.2,0c0.1,0,0.3-0.1,0.5-0.2c0.2-0.1,0.4-0.2,0.5-0.2
				c0.2,0,0.4,0.1,0.4,0.3c0.5,0.3,0.7,0.9,0.8,1.8c-2.7,2-5.4,3.3-8.2,3.9c-0.7,0.2-1.1,0.2-1.4,0.2c-4.8,0-8.2-1.1-10.3-3.2
				c-0.5-0.5-1.1-1.3-1.7-2.3c-0.7-1.2-1.2-2-1.5-2.4c-0.4-1.2-0.6-2.5-0.6-3.7c0-2.8,0.9-5.4,2.6-8c0.4-0.6,0.7-1,1-1.3
				c0.3-0.3,0.7-0.6,1.4-1c2.9-1.7,5.8-2.5,8.8-2.5c1.6,0,3,0.2,4.2,0.7C366.4,161.4,366.9,161.6,366.8,161.6z"/>
			<path d="M399.3,176c-0.3,0.5-0.6,1.2-0.9,2.1c-0.3,1-0.7,1.7-1.1,2.2c-2.7,2.9-5.6,4.3-8.7,4.3c-1.2,0.1-1.9,0.2-2.1,0.2
				c-2.5,0-5-0.8-7.4-2.3c-1.2-0.8-2.1-1.8-2.7-3.1c-0.6-1.3-1.2-2.5-1.7-3.8l-0.2-4.4c0.4-0.9,0.9-2.3,1.6-4.3
				c0.6-1.6,1.5-2.8,2.8-3.7c2.9-2,5.7-3,8.3-3c2,0,4,0.6,6.1,1.7c2,1.1,3.6,2.6,4.7,4.3c1,1.5,1.4,4,1.4,7.4c0,0.3,0,0.7,0,1.2
				C399.3,175.4,399.3,175.8,399.3,176z M395.2,168c-0.2-0.3-0.5-0.8-1-1.4c-1.7-2-4.2-3-7.4-3c-1.2,0-2.3,0.1-3.1,0.4
				c-1.4,0.4-2.6,1.3-3.7,2.6c-1,1.2-1.6,2.5-2.1,4c-0.2,0.8-0.3,1.3-0.3,1.6c0,0.5,0.1,1.2,0.2,2.1c0.5,3.5,2,5.7,4.4,6.7
				c1.5,0.6,3.2,1,5,1c2,0,3.7-0.3,4.9-1c0.4-0.2,0.9-0.6,1.4-1c2.1-1.9,3.1-4.2,3.1-7.2C396.6,171.2,396.2,169.6,395.2,168z"/>
			<path d="M422.8,184.4c-0.4,0-0.9,0-1.7-0.1c-1.4-1.6-3.6-4.6-6.8-8.9c-2.8-3.8-5.1-6.7-7-8.7c-0.3-0.2-0.6-0.2-0.8-0.2h-0.2
				l-0.3,0.4c0,0.2,0,0.6,0,1.1c0,0.6-0.1,1.5-0.2,2.6c-0.1,1.2-0.2,2-0.2,2.6c0,5.2,0,8.5,0.1,10c0.1,0.2,0.1,0.4,0.1,0.5
				c0,0.1,0,0.2-0.1,0.4l-3-0.1c0.1-1.6,0.2-3.4,0.2-5.4c0-1,0-2.6-0.1-4.7c0-2.1-0.1-3.7-0.1-4.8c0-3.3,0.1-6,0.4-8.3
				c0.2,0,0.5,0,0.9-0.1c0.4,0,0.7-0.1,0.9-0.1c0.3,0,0.5,0,0.8,0.1c0.4,0.2,0.9,0.6,1.6,1.4c0.5,0.6,0.9,1.2,1.4,1.8
				c0.2,0.2,0.5,0.6,1,1c0.2,0.3,0.5,0.7,1,1.2c2.2,2.5,5.4,6.2,9.7,11.3h0.3c0.3-3.1,0.4-8.6,0.4-16.5c0.5-0.2,1-0.2,1.4-0.2
				c0.5,0,1,0.1,1.3,0.3c0,1.4,0,3.5,0.1,6.3c0.1,2.8,0.1,4.9,0.1,6.3c0,1.9,0,3.2-0.1,4.1c-0.1,1.7-0.2,2.9-0.2,3.6
				c0,1.2,0.1,2.1,0.3,2.7C423.8,184.4,423.4,184.4,422.8,184.4z"/>
			<path d="M450.4,178.8c-0.2,1.2-0.8,2.3-1.7,3.3c-0.9,1-2,1.7-3.2,2c-3.4,0.8-5.6,1.3-6.7,1.3c-1.9,0-4-0.5-6.1-1.5
				c-2.1-1-3.8-2.3-5.1-3.8l1.9-1.7c2.6,2.6,5.8,4,9.5,4c1.6,0,3.1-0.3,4.6-0.9c1.8-0.7,2.9-1.7,3.4-3c0.2-0.3,0.2-0.6,0.2-0.8
				c0-0.1-0.1-0.4-0.2-0.9c-0.3-1.2-0.9-2-1.8-2.3c-1-0.3-2.2-0.5-3.7-0.6c-0.1,0-1.3,0-3.8-0.1c-0.6,0-1.5,0-2.6-0.1
				c-0.1,0-0.5-0.2-1.2-0.4c-2-0.7-3.5-1.8-4.5-3.1c-0.3-1.7-0.4-2.7-0.4-3.1c0-1.1,0.3-2,0.8-2.7c0.2-0.2,0.6-0.6,1.2-1.1
				c2.4-2.1,4.8-3,7.2-2.9c4,0.2,7.1,1.2,9.3,2.9c0.5,0,0.9,0.2,1.2,0.6c0,0,0,0.1,0,0.1c0,0.1,0,0.1,0,0.1c0,0.3-0.2,0.6-0.7,1
				c-0.2,0.2-0.5,0.5-0.9,1c-0.1,0.1-0.2,0.1-0.4,0.1c-0.2,0-0.4-0.1-0.8-0.4c-0.1-0.1-0.2-0.2-0.4-0.3l-0.4-0.2
				c-2.2-1-4.6-1.5-7.2-1.5c-2.3,0-4.1,0.6-5.5,1.7c-0.7,0.6-1,1.2-1,1.8c0,0.2,0.1,0.5,0.2,0.7c0.8,1.9,3,2.9,6.6,2.9
				c0.2,0,0.7,0,1.4,0c0.6,0,1,0,1.4,0c1.2,0,2.1,0.1,2.7,0.3c1.4,0.4,2.3,0.7,2.8,1c2.5,1.3,3.7,3.4,3.7,6.3
				C450.4,178.6,450.4,178.7,450.4,178.8z"/>
			<path d="M473.6,163.2h-7.4l-0.2,0.3v2.6c0,6,0,9.5-0.1,10.5c0,0.2-0.1,0.5-0.2,1.2c-0.1,0.5-0.1,0.9-0.1,1.2c0,0.5,0,1.1,0.1,2
				c0.1,0.9,0.1,1.6,0.1,2c0,0.6-0.4,0.9-1.3,0.9c-0.2,0-0.4,0-0.8-0.1c-0.3,0-0.6-0.1-0.8-0.1c-0.1,0-0.3,0-0.5,0.1
				c0.2-3.4,0.2-6.7,0.2-10c0-3-0.1-5.4-0.2-7.1c0-0.6-0.1-1.6-0.2-2.9c-0.1-0.5-0.6-0.8-1.3-0.8c-0.2,0-0.4,0-0.6,0
				c-0.3,0-0.5,0-0.6,0c-0.2,0-0.4,0-0.8-0.1c-0.4-0.1-0.9-0.1-1.6-0.1c-1.6,0-2.9,0-3.7,0.1v-1.6c0-1,0.3-1.4,1-1.4
				c10,0.3,14.6,0.4,14,0.4c1.1,0,2.8,0,5-0.1c0.2,1.1,0.3,1.6,0.3,1.7C474,162.7,473.9,163,473.6,163.2z"/>
			<path d="M499.3,170.2c0,0.1-0.2,0.5-0.5,1c-1.2,2.2-2.8,3.3-4.5,3.3c-0.1,0.1-0.3,0.2-0.5,0.4c0.4,1.2,1.1,2.7,2.2,4.5
				c1.3,2.2,2.1,3.7,2.5,4.4v0.2c-0.3-0.1-0.5-0.1-0.6-0.1c-0.2,0-0.4,0-0.8,0c-0.3,0-0.6,0-0.8,0c-0.8,0-1.4-0.3-1.7-0.9l-4.3-8.3
				l-0.6-0.4c-0.6,0.1-1,0.2-1.4,0.2c-0.5,0-1.2,0-2.1-0.1c-1-0.1-1.7-0.1-2.1-0.1c-1,0-1.9,0.1-2.5,0.2l-0.3,0.5c0,0.3,0,0.7,0,1.2
				c0,0.7-0.1,1.7-0.2,3.1c-0.1,1.4-0.2,2.4-0.2,3.1c0,0.3,0,0.8,0.1,1.4l-0.4,0.2c-0.3-0.1-0.6-0.1-0.9-0.1c-0.3,0-0.5,0-0.6,0.1
				c-1,0-1.4-0.3-1.4-0.8c0-0.2,0-0.4,0.1-0.7c0.1-0.3,0.1-1.4,0.2-3.4c0.1-2.3,0.2-4.8,0.2-7.2c0-1,0-2.4,0-4.4c0-2,0-3.5,0-4.4
				v-2.8c0.6-0.1,1.3-0.2,2-0.2c0.5,0,1.3,0.1,2.3,0.2c1,0.1,1.8,0.2,2.4,0.2c0.9,0,1.7-0.1,2.4-0.3c1.8,0.3,3.7,0.5,5.5,0.8
				c2.2,0.4,3.9,1.1,5,2.1c0.6,0.5,1,0.9,1.2,1.3c0.4,0.6,0.6,1.8,0.6,3.5C499.5,169,499.5,169.8,499.3,170.2z M495.2,165.1
				c-1.5-1-4.7-1.5-9.8-1.6c-0.2,0-0.7,0-1.4,0c-0.5,0-1,0-1.3,0c-0.6,0-1,0.2-1.2,0.5l-0.1,6.8l0.3,0.3c1.1,0.3,2.7,0.5,4.7,0.5
				c0.4,0,1.1,0,1.9,0c0.8,0,1.5,0,1.9,0h1.3c0,0,0.4-0.1,1-0.2c2.3-0.3,3.5-1.1,3.8-2.3c0.1-0.2,0.1-0.5,0.1-0.9
				C496.6,166.7,496.1,165.7,495.2,165.1z"/>
			<path d="M523.7,174.8c0,1.4,0,2.2,0,2.4c0,0.2-0.1,0.7-0.3,1.4c-0.6,2.3-1.6,3.8-3.1,4.5c-1.9,1-4.4,1.5-7.6,1.5
				c-2,0-3.3-0.1-3.7-0.2c-0.5-0.1-1.1-0.4-1.9-0.8c-0.8-0.4-1.3-0.8-1.6-1.1c-0.2-0.2-0.5-0.6-0.8-1.2c-1.3-2.3-2-5.5-2-9.5
				c0-0.7,0-1.8,0.1-3.2c0-1.4,0.1-2.5,0.1-3.3c0-1.5-0.1-2.7-0.2-3.8c0.3-0.3,0.8-0.4,1.3-0.4c0.3,0,0.8,0.1,1.5,0.2
				c0.2,1.5,0.3,4.1,0.4,7.7c0,0.9,0,2.1,0.1,3.8c0.1,0.3,0.1,0.8,0.2,1.4c0,0.8,0.1,1.6,0.1,2.5c0.1,1,0.4,1.7,0.8,2.3
				c0.7,0.9,1.8,1.7,3.2,2.2c1.2,0.5,2.5,0.7,3.9,0.7c1.9,0,3.4-0.3,4.3-0.8c0.4-0.2,0.7-0.5,1.1-1c0.8-1,1.4-2.3,1.6-4.1
				c0.1-1.5,0.2-3,0.2-4.5c0.1-0.9,0.1-1.6,0.1-2c0-0.7-0.2-3.4-0.5-8.1c0.8-0.2,1.4-0.3,1.8-0.3c0.2,0,0.5,0,0.7,0.1
				c0.3,2.1,0.4,4.6,0.4,7.7c0,0.6,0,1.6,0,2.9C523.8,173.2,523.7,174.2,523.7,174.8z"/>
			<path d="M547.3,161.6L547.3,161.6c0.3,0,0.7,0.2,1.2,0.6c0.4,0.3,0.8,0.5,1.2,0.8c0.2,0.1,0.4,0.3,0.8,0.5
				c0.4,0.3,0.6,0.7,0.6,1.1c0,0.2,0,0.4-0.1,0.5c-0.1,0.1-0.2,0.2-0.4,0.4c-0.7,0.7-1.2,1.1-1.6,1.1c0,0-0.1,0-0.1,0
				c-0.1,0-0.1,0-0.2,0c-1.7-1.1-2.9-1.8-3.6-2.1c-1.4-0.7-2.7-1-4-1c-2.9,0-5.5,0.9-7.6,2.7c-0.3,0.2-0.7,0.6-1.2,1.2
				c-0.1,0.2-0.2,0.5-0.4,0.8c-0.8,2-1.2,3.7-1.2,5.3c0,1.7,0.4,3.2,1.3,4.4c0.4,0.2,0.9,0.6,1.4,1.2c0.6,0.6,1,1,1.4,1.2
				c1.6,0.8,3.4,1.2,5.4,1.2c3.3,0,6.2-0.9,8.7-2.8c0.1,0,0.2,0,0.2,0c0.1,0,0.3-0.1,0.5-0.2c0.2-0.1,0.4-0.2,0.5-0.2
				c0.2,0,0.4,0.1,0.4,0.3c0.5,0.3,0.7,0.9,0.8,1.8c-2.7,2-5.4,3.3-8.2,3.9c-0.7,0.2-1.1,0.2-1.4,0.2c-4.8,0-8.2-1.1-10.3-3.2
				c-0.5-0.5-1.1-1.3-1.7-2.3c-0.7-1.2-1.2-2-1.5-2.4c-0.4-1.2-0.6-2.5-0.6-3.7c0-2.8,0.9-5.4,2.6-8c0.4-0.6,0.7-1,1-1.3
				c0.3-0.3,0.7-0.6,1.4-1c2.9-1.7,5.8-2.5,8.8-2.5c1.6,0,3,0.2,4.2,0.7C546.9,161.4,547.4,161.6,547.3,161.6z"/>
			<path d="M575.1,163.2h-7.4l-0.2,0.3v2.6c0,6,0,9.5-0.1,10.5c0,0.2-0.1,0.5-0.2,1.2c-0.1,0.5-0.1,0.9-0.1,1.2c0,0.5,0,1.1,0.1,2
				c0.1,0.9,0.1,1.6,0.1,2c0,0.6-0.4,0.9-1.3,0.9c-0.2,0-0.4,0-0.8-0.1c-0.3,0-0.6-0.1-0.8-0.1c-0.1,0-0.3,0-0.5,0.1
				c0.2-3.4,0.2-6.7,0.2-10c0-3-0.1-5.4-0.2-7.1c0-0.6-0.1-1.6-0.2-2.9c-0.1-0.5-0.6-0.8-1.3-0.8c-0.2,0-0.4,0-0.6,0
				c-0.3,0-0.5,0-0.6,0c-0.2,0-0.4,0-0.8-0.1c-0.4-0.1-0.9-0.1-1.6-0.1c-1.6,0-2.9,0-3.7,0.1v-1.6c0-1,0.3-1.4,1-1.4
				c10,0.3,14.6,0.4,14,0.4c1.1,0,2.8,0,5-0.1c0.2,1.1,0.3,1.6,0.3,1.7C575.5,162.7,575.4,163,575.1,163.2z"/>
			<path d="M604.3,176c-0.3,0.5-0.6,1.2-0.9,2.1c-0.3,1-0.7,1.7-1.1,2.2c-2.7,2.9-5.6,4.3-8.7,4.3c-1.2,0.1-1.9,0.2-2.1,0.2
				c-2.5,0-5-0.8-7.4-2.3c-1.2-0.8-2.1-1.8-2.7-3.1c-0.6-1.3-1.2-2.5-1.7-3.8l-0.2-4.4c0.4-0.9,0.9-2.3,1.6-4.3
				c0.6-1.6,1.5-2.8,2.8-3.7c2.9-2,5.7-3,8.3-3c2,0,4,0.6,6.1,1.7c2,1.1,3.6,2.6,4.7,4.3c1,1.5,1.4,4,1.4,7.4c0,0.3,0,0.7,0,1.2
				C604.3,175.4,604.3,175.8,604.3,176z M600.2,168c-0.2-0.3-0.5-0.8-1-1.4c-1.7-2-4.2-3-7.4-3c-1.2,0-2.3,0.1-3.1,0.4
				c-1.4,0.4-2.6,1.3-3.7,2.6c-1,1.2-1.6,2.5-2.1,4c-0.2,0.8-0.3,1.3-0.3,1.6c0,0.5,0.1,1.2,0.2,2.1c0.5,3.5,2,5.7,4.4,6.7
				c1.5,0.6,3.2,1,5,1c2,0,3.7-0.3,4.8-1c0.5-0.2,0.9-0.6,1.4-1c2.1-1.9,3.1-4.2,3.1-7.2C601.7,171.2,601.2,169.6,600.2,168z"/>
			<path d="M629.2,170.2c0,0.1-0.2,0.5-0.5,1c-1.2,2.2-2.8,3.3-4.5,3.3c-0.1,0.1-0.3,0.2-0.5,0.4c0.4,1.2,1.1,2.7,2.2,4.5
				c1.3,2.2,2.1,3.7,2.5,4.4v0.2c-0.3-0.1-0.5-0.1-0.6-0.1c-0.2,0-0.4,0-0.8,0c-0.3,0-0.6,0-0.8,0c-0.8,0-1.4-0.3-1.7-0.9l-4.3-8.3
				l-0.6-0.4c-0.6,0.1-1,0.2-1.4,0.2c-0.5,0-1.2,0-2.1-0.1c-1-0.1-1.7-0.1-2.1-0.1c-1,0-1.9,0.1-2.5,0.2l-0.3,0.5c0,0.3,0,0.7,0,1.2
				c0,0.7-0.1,1.7-0.2,3.1c-0.1,1.4-0.2,2.4-0.2,3.1c0,0.3,0,0.8,0.1,1.4l-0.4,0.2c-0.3-0.1-0.6-0.1-0.9-0.1c-0.3,0-0.5,0-0.6,0.1
				c-1,0-1.4-0.3-1.4-0.8c0-0.2,0-0.4,0.1-0.7c0.1-0.3,0.1-1.4,0.2-3.4c0.1-2.3,0.2-4.8,0.2-7.2c0-1,0-2.4,0-4.4c0-2,0-3.5,0-4.4
				v-2.8c0.6-0.1,1.3-0.2,2-0.2c0.5,0,1.3,0.1,2.3,0.2c1,0.1,1.8,0.2,2.4,0.2c0.9,0,1.7-0.1,2.4-0.3c1.8,0.3,3.7,0.5,5.5,0.8
				c2.2,0.4,3.9,1.1,5,2.1c0.6,0.5,1,0.9,1.2,1.3c0.4,0.6,0.6,1.8,0.6,3.5C629.4,169,629.3,169.8,629.2,170.2z M625.1,165.1
				c-1.5-1-4.7-1.5-9.8-1.6c-0.2,0-0.7,0-1.4,0c-0.5,0-1,0-1.3,0c-0.6,0-1,0.2-1.2,0.5l-0.1,6.8l0.3,0.3c1.1,0.3,2.7,0.5,4.7,0.5
				c0.4,0,1.1,0,1.9,0c0.8,0,1.5,0,1.9,0h1.3c0,0,0.4-0.1,1-0.2c2.3-0.3,3.5-1.1,3.8-2.3c0.1-0.2,0.1-0.5,0.1-0.9
				C626.4,166.7,626,165.7,625.1,165.1z"/>
			<path d="M653.9,183.8c-0.2,0-0.4,0-0.8,0c-0.3,0-0.6,0-0.8,0c-0.4-0.5-0.7-1.2-1.1-2.3c-0.3-0.8-0.6-1.6-0.8-2.4
				c-0.8-1.9-2-2.9-3.6-2.9c-0.1,0-0.2,0-0.3,0c-0.1,0-0.2,0-0.3,0c-0.5,0-1.1,0-2.1-0.1c-0.9-0.1-1.6-0.1-2.1-0.1
				c-0.3,0-0.7,0-1.2,0.1c-0.5,0.1-0.9,0.1-1.1,0.1c-0.2,0-0.4,0-0.7-0.1c-0.3-0.1-0.6-0.1-0.7-0.1c-0.4,0.6-1.2,1.9-2.2,3.9
				c-0.9,1.6-1.7,2.9-2.4,3.8c-0.5,0.1-1,0.1-1.5,0.1c-0.6,0-1.1-0.1-1.4-0.4c1.6-3.3,4.2-8.2,7.8-14.8c0.2-0.3,0.5-0.9,0.9-1.5
				c0.2-0.4,0.4-0.9,0.8-1.6c0.3-0.7,0.7-1.4,1-2.1c0.4-0.8,0.7-1.6,0.9-2.2c0.2-0.3,0.5-0.4,1-0.4c0.2,0,0.5,0,0.9,0.1
				c0.4,0.1,0.7,0.1,0.9,0.1h0.1c0.3,0.6,0.8,1.5,1.5,2.7l0.8,2c0.9,2.3,2.2,5.2,4,9c2,4.3,3.4,7.3,4.1,8.9
				C655,183.7,654.4,183.8,653.9,183.8z M645.9,170.2c-0.1-0.3-0.3-0.8-0.5-1.5c-0.4-0.7-0.9-1.7-1.6-3.1c-0.1,0-0.1,0-0.2,0
				c-0.1,0-0.2,0-0.3,0c-0.2,0.4-0.8,1.6-2,3.6c-0.8,1.5-1.4,2.8-1.5,3.8c0.8,0,1.9,0,3.2,0c1.6,0.1,2.6,0.1,3.2,0.1
				c0.4,0,0.7,0,0.9,0C647,172.9,646.6,171.9,645.9,170.2z"/>
		</g>
	</g>
	<g>
		<path d="M377.2,220.9c-0.2,0-0.4,0-0.8,0c-0.3,0-0.6,0-0.8,0c-0.4-0.5-0.7-1.2-1.1-2.3c-0.3-0.8-0.6-1.6-0.8-2.4
			c-0.8-1.9-2-2.9-3.6-2.9c-0.1,0-0.2,0-0.3,0c-0.1,0-0.2,0-0.3,0c-0.5,0-1.1,0-2.1-0.1c-0.9-0.1-1.6-0.1-2.1-0.1
			c-0.3,0-0.7,0-1.2,0.1c-0.5,0.1-0.9,0.1-1.1,0.1c-0.2,0-0.4,0-0.7-0.1c-0.3-0.1-0.6-0.1-0.7-0.1c-0.4,0.6-1.2,1.9-2.2,3.9
			c-0.9,1.6-1.7,2.9-2.4,3.8c-0.5,0.1-1,0.1-1.5,0.1c-0.6,0-1.1-0.1-1.4-0.4c1.6-3.3,4.2-8.2,7.8-14.8c0.2-0.3,0.5-0.9,0.9-1.6
			c0.2-0.4,0.4-0.9,0.8-1.6c0.3-0.7,0.7-1.4,1-2.1c0.4-0.8,0.7-1.6,0.9-2.2c0.2-0.3,0.5-0.4,1-0.4c0.2,0,0.5,0,0.9,0.1
			c0.4,0.1,0.7,0.1,0.9,0.1h0.1c0.3,0.6,0.8,1.5,1.5,2.7l0.8,2c0.9,2.3,2.2,5.2,4,9c2,4.3,3.4,7.3,4.1,8.9
			C378.3,220.8,377.8,220.9,377.2,220.9z M369.3,207.3c-0.1-0.3-0.3-0.8-0.5-1.5c-0.4-0.7-0.9-1.7-1.6-3.1c-0.1,0-0.1,0-0.2,0
			c-0.1,0-0.2,0-0.3,0c-0.2,0.4-0.8,1.6-2,3.6c-0.8,1.5-1.4,2.8-1.5,3.8c0.8,0,1.9,0,3.2,0c1.6,0.1,2.6,0.1,3.2,0.1
			c0.4,0,0.7,0,0.9,0C370.4,210,370,209,369.3,207.3z"/>
		<path d="M408.3,211.9c0,1.4,0,2.2,0,2.4c0,0.2-0.1,0.7-0.3,1.4c-0.6,2.3-1.6,3.8-3.1,4.5c-1.9,1-4.4,1.5-7.6,1.5
			c-2,0-3.3-0.1-3.7-0.2c-0.5-0.1-1.1-0.4-1.9-0.8c-0.8-0.4-1.3-0.8-1.6-1.1c-0.2-0.2-0.5-0.6-0.8-1.2c-1.3-2.3-2-5.5-2-9.5
			c0-0.7,0-1.8,0.1-3.2c0-1.4,0.1-2.5,0.1-3.3c0-1.5-0.1-2.7-0.2-3.7c0.3-0.3,0.8-0.4,1.3-0.4c0.3,0,0.8,0.1,1.5,0.2
			c0.2,1.5,0.3,4.1,0.4,7.7c0,0.9,0,2.1,0.1,3.8c0.1,0.3,0.1,0.8,0.2,1.4c0,0.8,0.1,1.6,0.1,2.5c0.1,1,0.4,1.7,0.8,2.3
			c0.7,0.9,1.8,1.7,3.2,2.2c1.2,0.5,2.5,0.7,3.9,0.7c1.9,0,3.4-0.3,4.3-0.8c0.4-0.2,0.7-0.5,1.1-1c0.8-1,1.4-2.3,1.6-4.1
			c0.1-1.5,0.2-3,0.2-4.5c0.1-0.9,0.1-1.6,0.1-2c0-0.7-0.2-3.4-0.5-8.1c0.8-0.2,1.4-0.3,1.8-0.3c0.2,0,0.5,0,0.7,0.1
			c0.3,2.1,0.4,4.6,0.4,7.7c0,0.6,0,1.6,0,2.9C408.3,210.3,408.3,211.3,408.3,211.9z"/>
		<path d="M441.8,209.1c0,2,0,3,0,3.1c-0.1,1.2-0.4,2.1-1,2.8c-0.1,0.8-1.1,2.1-2.9,3.8c-1.1,1.1-2.6,1.8-4.5,2.1
			c-1.2,0.2-2.9,0.4-5.1,0.4c-3.8,0-7-0.2-9.5-0.5V220c0-1.1,0-2.6,0.1-4.7c0.1-2.1,0.1-3.6,0.1-4.7c0-1.3-0.1-2.6-0.2-4
			c-0.1-1.7-0.2-2.3-0.2-2c0-0.4,0-1.1,0.1-1.9c0.1-0.8,0.1-1.5,0.1-1.8c0-1-0.1-1.9-0.2-2.7c0.1-0.2,0.3-0.2,0.7-0.2
			c0.3,0,0.6,0,0.7-0.1c1,0.1,2,0.2,3.3,0.2c4.8,0,7.7,0.1,8.8,0.3c3.3,0.5,5.8,1.9,7.4,4.2c1.6,2.4,2.5,4,2.5,4.8
			c0,0.2,0,0.5-0.1,0.9C441.8,208.6,441.8,208.9,441.8,209.1z M437.6,205.3c-0.2-0.3-0.4-0.6-0.8-1c-1.2-1.2-2.7-2.1-4.5-2.6
			c-0.6-0.2-0.9-0.2-1-0.2c-2,0-5-0.1-8.9-0.2c-0.2,2-0.2,4.6-0.2,7.6v8.9l0.2,0.2c0.4,0,1,0,1.8,0c0.5,0,1.2,0,2.1,0
			c0.9,0,1.6,0,2.1,0c3.3,0,5.7-0.4,7.2-1.2c0.8-0.4,1.4-1,1.9-1.9c0.2-0.4,0.6-1.3,1.2-2.5c-0.1-1.2-0.1-2.4-0.1-3.6
			C438.4,207.3,438.1,206.1,437.6,205.3z"/>
		<path d="M454.8,220.8c-0.3,0.2-0.5,0.3-0.8,0.3c-0.2,0-0.5,0-0.8-0.1c-0.4-0.1-0.6-0.1-0.8-0.1c-0.2,0-0.4,0-0.4,0.1l-0.2-0.2
			c0.1-2.1,0.2-4.6,0.2-7.5c0-1.2,0-3-0.1-5.4c-0.1-2.4-0.1-4.2-0.1-5.4c0-1.9,0.2-3.3,0.6-4.5c0.2,0.2,0.6,0.2,1.1,0.2
			c0.6,0,1.1,0.1,1.3,0.1c0.1,4,0.1,6.9,0.1,8.9v4.8C454.9,214,454.8,216.9,454.8,220.8z"/>
		<path d="M490.2,213.1c-0.3,0.5-0.6,1.2-0.9,2.1c-0.3,1-0.7,1.7-1.1,2.2c-2.7,2.9-5.6,4.3-8.7,4.3c-1.2,0.1-1.9,0.2-2.1,0.2
			c-2.5,0-5-0.8-7.4-2.3c-1.2-0.8-2.1-1.8-2.7-3.1c-0.6-1.3-1.2-2.5-1.7-3.8l-0.2-4.4c0.4-0.9,0.9-2.3,1.6-4.3
			c0.6-1.6,1.5-2.8,2.8-3.7c2.9-2,5.7-3,8.3-3c2,0,4,0.6,6.1,1.7c2,1.1,3.6,2.6,4.7,4.3c1,1.5,1.4,4,1.4,7.4c0,0.3,0,0.7,0,1.2
			C490.2,212.5,490.2,212.9,490.2,213.1z M486.1,205.1c-0.2-0.3-0.5-0.8-1-1.4c-1.7-2-4.2-3-7.4-3c-1.2,0-2.3,0.1-3.1,0.4
			c-1.4,0.4-2.6,1.3-3.7,2.6c-1,1.2-1.6,2.5-2.1,4c-0.2,0.8-0.3,1.3-0.3,1.6c0,0.5,0.1,1.2,0.2,2.1c0.5,3.5,2,5.7,4.4,6.7
			c1.5,0.6,3.2,1,5,1c2,0,3.7-0.3,4.9-1c0.5-0.2,0.9-0.6,1.4-1c2.1-1.9,3.1-4.2,3.1-7.2C487.6,208.3,487.1,206.7,486.1,205.1z"/>
		<path d="M512.2,220.8l-2.5,0.1c-0.7-1.1-1.5-2.7-2.4-4.7c-1.1-2.4-1.8-4-2.3-4.8c-0.8-1.5-1.8-3.6-2.9-6.2
			c-0.3-0.6-0.6-1.4-1.1-2.5c-0.1-0.3-0.3-0.7-0.6-1.3c-0.3-0.6-0.6-1.1-0.9-1.7c-0.3-0.6-0.5-1.2-0.6-1.7c0.1,0,0.4,0,0.9-0.1
			c0.4-0.1,0.7-0.1,0.9-0.1c0.6,0,1.1,0.2,1.4,0.6c0.2,0.2,0.4,0.6,0.8,1.4c0.5,1,0.7,1.5,0.7,1.5c1,1.8,2.4,4.6,4.1,8.3
			c0.1,0.3,0.3,0.7,0.6,1.3c0.2,0.3,0.4,0.7,0.6,1.2l0.9,1.9c0.4,0.7,0.8,1.2,1.3,1.6c0.3-0.4,0.7-1,1.1-1.8c0.6-1.1,0.9-1.7,1-1.9
			c3.3-5.5,5.8-10.2,7.5-14.1c0.4-0.2,0.7-0.2,1.1-0.2c0.1,0,0.3,0,0.7,0c0.3,0,0.5,0,0.7,0v0.7c-1.9,3.7-3.7,7.4-5.6,11.1
			C515.3,213.9,513.6,217.7,512.2,220.8z"/>
		<path d="M534.4,220.8c-0.3,0.2-0.5,0.3-0.8,0.3c-0.2,0-0.5,0-0.8-0.1c-0.4-0.1-0.6-0.1-0.8-0.1c-0.2,0-0.4,0-0.4,0.1l-0.2-0.2
			c0.1-2.1,0.2-4.6,0.2-7.5c0-1.2,0-3-0.1-5.4c-0.1-2.4-0.1-4.2-0.1-5.4c0-1.9,0.2-3.3,0.6-4.5c0.2,0.2,0.6,0.2,1.1,0.2
			c0.6,0,1.1,0.1,1.3,0.1c0.1,4,0.1,6.9,0.1,8.9v4.8C534.5,214,534.5,216.9,534.4,220.8z"/>
		<path d="M568,215.9c-0.2,1.2-0.8,2.3-1.7,3.3c-0.9,1-2,1.7-3.2,2c-3.4,0.8-5.6,1.3-6.7,1.3c-1.9,0-4-0.5-6.1-1.5
			c-2.1-1-3.8-2.3-5.1-3.8l1.9-1.7c2.7,2.7,5.8,4,9.5,4c1.6,0,3.1-0.3,4.6-0.9c1.8-0.7,2.9-1.7,3.4-3c0.2-0.3,0.2-0.6,0.2-0.8
			c0-0.1-0.1-0.4-0.2-0.9c-0.3-1.2-0.9-2-1.8-2.3c-1-0.3-2.2-0.5-3.7-0.6c-0.1,0-1.3,0-3.8-0.1c-0.6,0-1.5,0-2.6-0.1
			c-0.1,0-0.5-0.2-1.2-0.4c-2-0.7-3.5-1.8-4.5-3.1c-0.3-1.7-0.4-2.7-0.4-3.1c0-1.1,0.3-2,0.8-2.7c0.2-0.2,0.6-0.6,1.2-1.1
			c2.4-2.1,4.8-3,7.2-2.9c4,0.2,7.1,1.2,9.3,2.9c0.5,0,0.9,0.2,1.2,0.6c0,0,0,0.1,0,0.1c0,0.1,0,0.1,0,0.1c0,0.3-0.2,0.6-0.7,1
			c-0.2,0.2-0.5,0.5-0.9,1c-0.1,0.1-0.2,0.1-0.4,0.1c-0.2,0-0.4-0.1-0.8-0.4c-0.1-0.1-0.2-0.2-0.4-0.3l-0.4-0.2
			c-2.2-1-4.6-1.5-7.2-1.5c-2.3,0-4.1,0.6-5.5,1.7c-0.7,0.6-1,1.2-1,1.8c0,0.2,0.1,0.5,0.2,0.7c0.8,1.9,3,2.9,6.6,2.9
			c0.2,0,0.7,0,1.4,0c0.6,0,1,0,1.4,0c1.2,0,2.1,0.1,2.7,0.3c1.4,0.4,2.3,0.7,2.8,1c2.5,1.3,3.7,3.4,3.7,6.3
			C568,215.7,568,215.8,568,215.9z"/>
		<path d="M599.1,211.9c0,1.4,0,2.2,0,2.4c0,0.2-0.1,0.7-0.3,1.4c-0.6,2.3-1.6,3.8-3.1,4.5c-1.9,1-4.4,1.5-7.6,1.5
			c-2,0-3.3-0.1-3.7-0.2c-0.5-0.1-1.1-0.4-1.9-0.8c-0.8-0.4-1.3-0.8-1.6-1.1c-0.2-0.2-0.5-0.6-0.8-1.2c-1.3-2.3-2-5.5-2-9.5
			c0-0.7,0-1.8,0.1-3.2c0-1.4,0.1-2.5,0.1-3.3c0-1.5-0.1-2.7-0.2-3.7c0.3-0.3,0.8-0.4,1.3-0.4c0.3,0,0.8,0.1,1.5,0.2
			c0.2,1.5,0.3,4.1,0.4,7.7c0,0.9,0,2.1,0.1,3.8c0.1,0.3,0.1,0.8,0.2,1.4c0,0.8,0.1,1.6,0.1,2.5c0.1,1,0.4,1.7,0.8,2.3
			c0.7,0.9,1.8,1.7,3.2,2.2c1.2,0.5,2.5,0.7,3.9,0.7c1.9,0,3.4-0.3,4.3-0.8c0.4-0.2,0.7-0.5,1.1-1c0.8-1,1.4-2.3,1.6-4.1
			c0.1-1.5,0.2-3,0.2-4.5c0.1-0.9,0.1-1.6,0.1-2c0-0.7-0.2-3.4-0.5-8.1c0.8-0.2,1.4-0.3,1.8-0.3c0.2,0,0.5,0,0.7,0.1
			c0.3,2.1,0.4,4.6,0.4,7.7c0,0.6,0,1.6,0,2.9C599.1,210.3,599.1,211.3,599.1,211.9z"/>
		<path d="M630.9,220.9c-0.2,0-0.4,0-0.8,0c-0.3,0-0.6,0-0.8,0c-0.4-0.5-0.7-1.2-1.1-2.3c-0.3-0.8-0.6-1.6-0.8-2.4
			c-0.8-1.9-2-2.9-3.6-2.9c-0.1,0-0.2,0-0.3,0c-0.1,0-0.2,0-0.3,0c-0.5,0-1.1,0-2.1-0.1c-0.9-0.1-1.6-0.1-2.1-0.1
			c-0.3,0-0.7,0-1.2,0.1c-0.5,0.1-0.9,0.1-1.1,0.1c-0.2,0-0.4,0-0.7-0.1c-0.3-0.1-0.6-0.1-0.7-0.1c-0.4,0.6-1.2,1.9-2.2,3.9
			c-0.9,1.6-1.7,2.9-2.4,3.8c-0.5,0.1-1,0.1-1.5,0.1c-0.6,0-1.1-0.1-1.4-0.4c1.6-3.3,4.2-8.2,7.8-14.8c0.2-0.3,0.5-0.9,0.9-1.6
			c0.2-0.4,0.4-0.9,0.8-1.6c0.3-0.7,0.7-1.4,1-2.1c0.4-0.8,0.7-1.6,0.9-2.2c0.2-0.3,0.5-0.4,1-0.4c0.2,0,0.5,0,0.9,0.1
			c0.4,0.1,0.7,0.1,0.9,0.1h0.1c0.3,0.6,0.8,1.5,1.5,2.7l0.8,2c0.9,2.3,2.2,5.2,4,9c2,4.3,3.4,7.3,4.1,8.9
			C632,220.8,631.5,220.9,630.9,220.9z M623,207.3c-0.1-0.3-0.3-0.8-0.5-1.5c-0.4-0.7-0.9-1.7-1.6-3.1c-0.1,0-0.1,0-0.2,0
			c-0.1,0-0.2,0-0.3,0c-0.2,0.4-0.8,1.6-2,3.6c-0.8,1.5-1.4,2.8-1.5,3.8c0.8,0,1.9,0,3.2,0c1.6,0.1,2.6,0.1,3.2,0.1
			c0.4,0,0.7,0,0.9,0C624.1,210,623.7,209,623,207.3z"/>
		<path d="M659.3,219.3c-0.2,0.6-0.2,0.9-0.2,1c0,0.1,0,0.3,0.1,0.4l-0.2,0.2c-0.5,0-1.3,0-2.3,0c-1.3,0-3.3-0.1-6-0.2
			c-2.7-0.1-4.7-0.2-6.1-0.2c-0.6,0-1.5,0-2.7,0.1c-0.2-1.9-0.2-4.3-0.2-7.2c0-1.2,0-3,0.1-5.4c0-2.4,0.1-4.2,0.1-5.4
			c0-1.7,0-3.4-0.1-5.1c0.6-0.2,1.1-0.3,1.6-0.3c0.3,0,0.5,0,0.8,0.1l0.2,0.3l0.4,19.8c0.3,0.3,0.9,0.5,1.8,0.5H659
			c0.2,0.2,0.3,0.5,0.3,0.7C659.3,219,659.3,219.1,659.3,219.3z"/>
	</g>
</g>
<g>
</g>
<g>
</g>
<g>
</g>
<g>
</g>
<g>
</g>
<g>
</g>
</svg>
